<svg id="Layer_1" data-name="Layer 1" xmlns="http://www.w3.org/2000/svg" width="0.5in" height="0.5in" viewBox="0 0 38.4 38.4"><path d="M8.4,14.5l6.1-7.8a11.1,11.1,0,0,1,8.9-4.4h4L15.6,16.4,28.4,32H23.2a9.2,9.2,0,0,1-7.5-3.6L8.4,19.2V32H.7V2.3H8.4Z" fill="#fff"/><path d="M20.3,22.9a9.8,9.8,0,0,0,6.6,2.9,3.4,3.4,0,0,0,2.7-1,2.1,2.1,0,0,0,.9-1.8,2.4,2.4,0,0,0-.9-1.8,14.9,14.9,0,0,0-3.7-1.4L24,19.2a9.9,9.9,0,0,1-4.1-2.3,6.9,6.9,0,0,1-1.5-5A9.4,9.4,0,0,1,20.9,5a9.4,9.4,0,0,1,7.3-2.7A20.9,20.9,0,0,1,37,4.6l-2.9,5.7a8.8,8.8,0,0,0-4.9-1.9,3.8,3.8,0,0,0-2.4.8,2.5,2.5,0,0,0-.8,1.6,2,2,0,0,0,.4,1.3,5,5,0,0,0,2.5,1.3l2.3.6a12.2,12.2,0,0,1,5.2,2.9A7.3,7.3,0,0,1,38.2,22a9.8,9.8,0,0,1-2.7,7.2C33,31.6,30.1,32,27,32a12.8,12.8,0,0,1-5.5-.9,16.1,16.1,0,0,1-4.3-2.3Z" fill="#fff"/><path d="M28.4,32a8.7,8.7,0,0,0,3.2-.6c1-.4-3.5.2-3.5.2ZM1.1,34.2l1.4-1.4H3L1.4,34.3,3,36.1H2.5L1.2,34.6H1.1V36H.7V32.8h.4Zm2.7-1.4v3.3H3.5V32.8Zm3.5.7a.5.5,0,0,0-.5-.3H6.2a1.3,1.3,0,0,0-1.3,1.4h0A1.3,1.3,0,0,0,6,35.9H7l.3-.3v.5a2,2,0,0,1-1.1.3,1.7,1.7,0,0,1,0-3.4h.2l.9.2Zm1.1.7,1.3-1.4h.6L8.8,34.3l1.5,1.8H9.8L8.4,34.6V36H8V32.8h.4Zm2,.2a1.7,1.7,0,0,1,3.4,0,1.7,1.7,0,0,1-1.7,1.7h0A1.7,1.7,0,0,1,10.4,34.4Zm.4,0a1.3,1.3,0,1,0,2.6,0,1.3,1.3,0,0,0-2.6,0Zm5.3-1.3H14.9v1h1.2v.3H14.9v1.7h-.4V32.8h1.6Zm2.1,0H17v1h1.2v.3H17v1.7h-.3V32.8h1.5Zm3.4.4-.2-.4H21c-.4,0-.6.1-.6.5s0,.2.1.2l.4.3h.3l.5.3a.9.9,0,0,1,.3.6,1,1,0,0,1-1,1h-.1c-.3,0-.6,0-.7-.2a.9.9,0,0,1-.3-.6h.4c0,.2.1.3.1.4h.5c.5,0,.7-.2.7-.6a.4.4,0,0,0-.1-.3l-.5-.3h-.2l-.5-.3a.5.5,0,0,1-.3-.5c0-.6.4-.8,1-.8h.5l.3.3Zm.8.9a1.8,1.8,0,0,1,1.8-1.6,1.6,1.6,0,0,1,1.7,1.6,1.6,1.6,0,0,1-1.7,1.7h0A1.8,1.8,0,0,1,22.4,34.4Zm.4,0a1.3,1.3,0,0,0,1.3,1.4h.1a1.4,1.4,0,0,0,1.4-1.4,1.3,1.3,0,0,0-1.4-1.3,1.4,1.4,0,0,0-1.4,1.2Zm6.4-.9c-.2-.2-.3-.3-.5-.3h-.5a1.3,1.3,0,0,0-1.3,1.4,1.3,1.3,0,0,0,1.3,1.3h.6l.4-.3v.5a1.9,1.9,0,0,1-1,.3,1.8,1.8,0,0,1-1.8-1.6v-.4a1.8,1.8,0,0,1,1.8-1.6,1.2,1.2,0,0,1,1,.2Zm3.2,0-.5-.3h-.5A1.4,1.4,0,0,0,30,34.4h0a1.3,1.3,0,0,0,1.3,1.4H32l.4-.3V36a1.2,1.2,0,0,1-1,.2,1.7,1.7,0,0,1-1.8-1.5h0a1.8,1.8,0,0,1,1.8-1.7,1.6,1.6,0,0,1,1,.2Zm2.4-.4H33.5v1h1.3v.3H33.5v1.4h1.3v.3H33.1V32.8h1.7Zm1.2-.3a.8.8,0,0,1,.8.2.7.7,0,0,1,.4.7.9.9,0,0,1-.8.9h0l1,1.5H37l-1-1.4h-.1v1.4h-.4V32.8Zm-.1,1.5h.2c.5,0,.7-.2.7-.6s0-.3-.2-.5h-.7Z" fill="#fff"/></svg>