<svg xmlns="http://www.w3.org/2000/svg" width="38.4" height="38.4" viewBox="0 0 32 32"><path d="M7 12.1l5.1-6.5a9.4 9.4 0 0 1 7.4-3.7h3.3L13 13.7l10.7 13h-4.4a7.8 7.8 0 0 1-6.2-3L7 16v10.7H.6V1.9H7z"/><path d="M16.9 19.1a8.5 8.5 0 0 0 5.5 2.4 2.9 2.9 0 0 0 2.3-.8 2.1 2.1 0 0 0 .7-1.5 2.1 2.1 0 0 0-.7-1.5 11 11 0 0 0-3.1-1.2L20 16a8.4 8.4 0 0 1-3.4-1.9 5.9 5.9 0 0 1-1.3-4.2 7.8 7.8 0 0 1 2.1-5.7 8 8 0 0 1 6.1-2.3 17.2 17.2 0 0 1 7.3 1.9l-2.4 4.8A6.8 6.8 0 0 0 24.3 7a3.2 3.2 0 0 0-2 .7 1.8 1.8 0 0 0-.6 1.3 1.8 1.8 0 0 0 .3 1.1 4.7 4.7 0 0 0 2.1 1.1l1.9.5a9.3 9.3 0 0 1 4.3 2.4 5.6 5.6 0 0 1 1.5 4.2 8 8 0 0 1-2.2 6c-2.1 2-4.5 2.4-7.1 2.4a11.5 11.5 0 0 1-4.6-.8 13.8 13.8 0 0 1-3.6-1.9z"/><path d="M23.7 26.7a9.1 9.1 0 0 0 2.6-.5c.9-.4-2.9.1-2.9.1zM.9 28.5l1.2-1.2h.4l-1.3 1.3 1.3 1.5h-.4L1 28.8H.9V30H.6v-2.7h.3zm2.3-1.2v2.8h-.3v-2.8zm2.9.6a.5.5 0 0 0-.4-.2h-.5a1.1 1.1 0 0 0-1.1 1.1 1 1 0 0 0 1.1 1.1h.6l.3-.2v.4a1.5 1.5 0 0 1-.9.2 1.4 1.4 0 0 1-1.4-1.4 1.4 1.4 0 0 1 1.5-1.4 1.5 1.5 0 0 1 .8.2zm.9.6l1.1-1.2h.5l-1.3 1.3 1.3 1.5h-.4L7 28.8V30h-.3v-2.7H7zm1.7.2a1.4 1.4 0 1 1 1.4 1.4 1.4 1.4 0 0 1-1.4-1.4zm.3 0a1.1 1.1 0 1 0 1.1-1.1A1.1 1.1 0 0 0 9 28.7zm4.4-1.1h-1v.8h1v.3h-1v1.4h-.3v-2.8h1.3zm1.8 0h-1v.8h1v.3h-1v1.4h-.3v-2.8h1.3zm2.8.3l-.2-.3h-.3c-.3 0-.5.1-.5.4s0 .2.1.2l.3.2h.3l.4.3a.8.8 0 0 1 .2.5.8.8 0 0 1-.9.8.7.7 0 0 1-.6-.2.8.8 0 0 1-.2-.5h.3c0 .2.1.3.1.4h.4c.4 0 .6-.2.6-.5a.4.4 0 0 0-.1-.3l-.4-.2h-.2l-.4-.3a.5.5 0 0 1-.2-.4c0-.5.3-.7.8-.7h.4l.3.3zm.7.8a1.5 1.5 0 0 1 1.5-1.4 1.4 1.4 0 1 1 0 2.8 1.5 1.5 0 0 1-1.5-1.4zm.3 0a1.1 1.1 0 0 0 1.2 1.1 1.1 1.1 0 1 0 0-2.2 1.1 1.1 0 0 0-1.2 1.1zm5.3-.8a.5.5 0 0 0-.4-.2h-.4a1.1 1.1 0 0 0 0 2.2h.5l.3-.2v.4a1.3 1.3 0 0 1-.8.2 1.4 1.4 0 0 1-1.5-1.6 1.5 1.5 0 0 1 1.5-1.4 1.3 1.3 0 0 1 .8.2zm2.7 0l-.4-.2h-.4a1.1 1.1 0 0 0-1.2 1 1.1 1.1 0 0 0 1.2 1.1h.5l.3-.2v.4a1.3 1.3 0 0 1-.8.2 1.4 1.4 0 0 1-1.5-1.4 1.5 1.5 0 0 1 1.5-1.4 1.3 1.3 0 0 1 .8.2zm2-.3h-1.1v.8H29v.3h-1.1v1.1H29v.3h-1.4v-2.8H29zm1-.3a1 1 0 0 1 .7.2.6.6 0 0 1 .3.6.7.7 0 0 1-.7.7l.9 1.3h-.4l-.8-1.2h-.1v1.2h-.3v-2.8zm-.1 1.3h.2c.4 0 .6-.2.6-.5s0-.3-.2-.4h-.6z"/></svg>